<svg xmlns="http://www.w3.org/2000/svg" version="1.1" xmlns:xlink="http://www.w3.org/1999/xlink" xmlns:svgjs="http://svgjs.com/svgjs" width="512" height="512" x="0" y="0" viewBox="0 0 511.185 511.185" style="enable-background:new 0 0 512 512" xml:space="preserve" class=""><g><path xmlns="http://www.w3.org/2000/svg" d="m176.675 17.989h22.527l-9.548-9.24c-8.379-8.11-21.746-7.89-29.854.489-6.06 6.262-7.465 15.308-4.293 22.865 3.463-8.28 11.646-14.114 21.168-14.114z" fill="#ffffff" data-original="#000000" class=""></path><path xmlns="http://www.w3.org/2000/svg" d="m374.619 114.057-52.314-23.105c-5.099-2.252-10.467-3.066-15.655-2.624-.629 4.845-2.776 9.528-6.49 13.241l-2.356 2.355h3.331c12.645 0 22.933 10.288 22.933 22.933v21.926l-23.811 46.078-74.825 29.812c-10.832 4.315-16.115 16.595-11.799 27.428 4.323 10.851 16.614 16.108 27.428 11.799l81.808-32.594c4.517-1.799 8.274-5.103 10.637-9.352l32.298-58.074-19.311 65.298c-3.757 12.703-15.668 14.497-18.124 15.934l-81.808 32.594c-11.388 4.537-23.712 2.842-33.211-3.454h-6.36l-24.883 73.995c-.667 1.981-1.095 4.034-1.277 6.117l-11.185 128.128c-1.34 15.35 10.732 28.688 26.321 28.688 13.537 0 25.061-10.358 26.261-24.098l10.911-124.994 27.988-83.228 11.294 4.988-4.217 84.588c-.213 4.273.616 8.534 2.416 12.415l53.34 115.037c6.142 13.245 21.842 18.963 35.044 12.841 13.223-6.132 18.972-21.821 12.841-35.044l-50.6-109.128 2.885-57.871.394.174 66.474-150.512c7.157-16.2-.177-35.135-16.378-42.291z" fill="#ffffff" data-original="#000000" class=""></path><ellipse xmlns="http://www.w3.org/2000/svg" cx="381.112" cy="47.485" rx="47.473" ry="47.473" transform="matrix(.404 -.915 .915 .404 183.703 376.925)" fill="#ffffff" data-original="#000000" class=""></ellipse><path xmlns="http://www.w3.org/2000/svg" d="m283.639 173.532h17.497c.321 0 .636-.023.947-.059l7.202-8.087c0-.001 0-.002 0-.003v-38.523c0-4.5-3.649-8.149-8.149-8.149h-17.497c-1.652-5.293-3.788-10.369-6.324-15.202l12.391-12.391c3.182-3.182 3.182-8.342 0-11.525l-27.24-27.24c-1.591-1.591-3.677-2.387-5.762-2.387-2.086 0-4.171.796-5.762 2.387l-12.392 12.39c-4.833-2.536-9.909-4.672-15.202-6.324v-17.497c0-4.5-3.648-8.149-8.149-8.149h-38.524c-4.501 0-8.149 3.648-8.149 8.149v17.497c-5.293 1.653-10.369 3.788-15.202 6.324l-12.391-12.391c-1.591-1.591-3.677-2.387-5.762-2.387-2.086 0-4.171.796-5.762 2.387l-27.24 27.24c-3.182 3.183-3.182 8.343 0 11.525l12.391 12.391c-2.536 4.833-4.672 9.909-6.324 15.202h-17.498c-4.501 0-8.149 3.649-8.149 8.149v38.523c0 4.501 3.649 8.149 8.149 8.149h17.497c1.652 5.293 3.788 10.369 6.324 15.202l-12.391 12.391c-3.182 3.182-3.182 8.342 0 11.524l27.24 27.241c1.591 1.591 3.677 2.387 5.762 2.387 2.086 0 4.171-.796 5.762-2.387l12.391-12.392c4.833 2.536 9.909 4.672 15.202 6.324v17.497c0 4.501 3.649 8.149 8.149 8.149h23.961c-.284-.612-.556-1.232-.809-1.867-7.354-18.457 1.647-39.381 20.104-46.734l57.835-23.042c2.334-4.561 4.324-9.327 5.874-14.292zm-87.702 27.04c-30.073 0-54.452-24.379-54.452-54.451 0-30.073 24.379-54.452 54.452-54.452s54.452 24.379 54.452 54.452c-.001 30.072-24.38 54.451-54.452 54.451z" fill="#ffffff" data-original="#000000" class=""></path></g></svg>